<svg id="Layer_1" data-name="Layer 1" xmlns="http://www.w3.org/2000/svg" viewBox="0 0 509.03 78.35"><defs><style>.cls-1{fill:#00263e;}</style></defs><title>OceanX Logo</title><path class="cls-1" d="M256,274.66a29.14,29.14,0,0,0-6.78,2.86,28.53,28.53,0,0,0-5.72,4.43,27.85,27.85,0,0,0-4.42,5.72,28.74,28.74,0,0,0-2.87,6.78,28.34,28.34,0,0,0,0,15.07,28.74,28.74,0,0,0,2.87,6.78,28.42,28.42,0,0,0,10.14,10.14,28.74,28.74,0,0,0,6.78,2.87,27.72,27.72,0,0,0,7.54,1h51v-5.1H270.94a22.82,22.82,0,0,1-9.07-1.82,23,23,0,0,1-12.36-12.36,23.61,23.61,0,0,1,0-18.13,23,23,0,0,1,12.36-12.36,22.82,22.82,0,0,1,9.07-1.82h43.65v-5.1h-51A27.72,27.72,0,0,0,256,274.66Z" transform="translate(-141.49 -273.64)"/><polygon class="cls-1" points="400.49 51.02 344.37 0 327.37 0 327.37 56.69 333.6 56.69 333.6 5.67 389.72 56.69 406.73 56.69 406.73 0 400.49 0 400.49 51.02"/><path class="cls-1" d="M227.06,287.67a28.48,28.48,0,0,0-10.15-10.15,29.06,29.06,0,0,0-6.77-2.86,28.09,28.09,0,0,0-6.69-1v0H169v0a28,28,0,0,0-6.69,1,28.88,28.88,0,0,0-6.77,2.86,28.48,28.48,0,0,0-10.15,10.15,28.71,28.71,0,0,0-2.86,6.78,28.34,28.34,0,0,0,0,15.07,28.71,28.71,0,0,0,2.86,6.78,28.21,28.21,0,0,0,4.42,5.72,27.91,27.91,0,0,0,5.73,4.42,28.49,28.49,0,0,0,6.77,2.87,28,28,0,0,0,6.69,1v0h34.47v0a28.09,28.09,0,0,0,6.69-1,28.67,28.67,0,0,0,6.77-2.87,27.91,27.91,0,0,0,5.73-4.42,28.21,28.21,0,0,0,4.42-5.72,28.71,28.71,0,0,0,2.86-6.78,28.34,28.34,0,0,0,0-15.07A28.71,28.71,0,0,0,227.06,287.67Zm-10.4,23.38a23,23,0,0,1-12.36,12.36,22.85,22.85,0,0,1-9.07,1.82h-18a22.85,22.85,0,0,1-9.07-1.82,23,23,0,0,1-12.36-12.36,23.61,23.61,0,0,1,0-18.13,23.18,23.18,0,0,1,21.43-14.18h18a22.85,22.85,0,0,1,9.07,1.82,23,23,0,0,1,12.36,12.36,23.61,23.61,0,0,1,0,18.13Z" transform="translate(-141.49 -273.64)"/><path class="cls-1" d="M418.73,273.64,389,324.84h-57.8v-20H377v-5.48H331.23V279.27h54.35v-5.62H320.15v56.69h72.5l11.51-19.84h36.67l11.91,19.84h12.47l-34-56.69Zm-11.62,31.75,15.07-26,15.59,26Z" transform="translate(-141.49 -273.64)"/><polygon class="cls-1" points="509.03 78.35 458.08 27.79 491.43 0 480.09 0 452.9 22.66 430.07 0 412.07 0 445.68 28.68 412.07 56.69 423.4 56.69 451.29 33.45 504.23 78.35 509.03 78.35"/></svg>